<svg xmlns="http://www.w3.org/2000/svg" id="Icons" height="512" viewBox="0 0 60 60" width="512"><path d="m22.986 47.444a.5.5 0 0 1 -.273-.918l5.053-3.3-6.827 3.94a.5.5 0 0 1 -.522-.852l9.162-5.941-10.969 6.327a.5.5 0 0 1 -.523-.851l12.763-8.316-14.606 8.433a.5.5 0 0 1 -.519-.854l12.741-8.166-14.177 8.185a.5.5 0 0 1 -.513-.859l4.633-2.863-5.347 3.091a.5.5 0 0 1 -.512-.859l1.75-1.078-2.277 1.315a.5.5 0 0 1 -.516-.856l13.653-8.622-14.627 8.448a.5.5 0 0 1 -.517-.855l15.978-10.137-16.95 9.787a.5.5 0 0 1 -.516-.857l14.118-8.852-14.815 8.552a.5.5 0 0 1 -.513-.857l10.323-6.389-10.759 6.211a.5.5 0 0 1 -.517-.855l16.135-10.149-16.7 9.645a.5.5 0 0 1 -.516-.857l16.077-10.1-16.543 9.547a.5.5 0 0 1 -.517-.856l17.808-11.26-18.209 10.513a.5.5 0 0 1 -.514-.856l14.245-8.894-14.417 8.324a.5.5 0 0 1 -.514-.853l18.9-12.044-19.109 11.034a.5.5 0 0 1 -.516-.855l15.613-9.827-15.6 9a.5.5 0 0 1 -.519-.853l18.178-11.62-18.077 10.436a.5.5 0 0 1 -.511-.858l5.556-3.413-5.215 3.005a.5.5 0 0 1 -.513-.858l8.876-5.515-8.463 4.884a.5.5 0 0 1 -.518-.854l13.11-8.31-12.586 7.268a.5.5 0 0 1 -.52-.854l12.9-8.241-12.196 7.041a.5.5 0 0 1 -.512-.858l1.06-.654-.335.193a.5.5 0 0 1 -.515-.857l4.2-2.626-3.326 1.921a.5.5 0 0 1 -.522-.851l9.66-6.272-8.4 4.852a.5.5 0 0 1 -.53-.847l10.313-6.994-8.378 4.836a.5.5 0 0 1 -.537-.842l7.021-4.925-4.184 2.415a.5.5 0 0 1 -.545-.836l3.54-2.584a.492.492 0 0 1 -.194-.19.5.5 0 0 1 .182-.683l5.812-3.355a.5.5 0 0 1 .545.837l-1.736 1.267 5.9-3.408a.5.5 0 0 1 .537.842l-7.015 4.923 10.507-6.07a.5.5 0 0 1 .53.847l-10.31 6.997 13.099-7.562a.5.5 0 0 1 .523.851l-9.669 6.275 11.482-6.629a.5.5 0 0 1 .515.856l-4.2 2.623 5.214-3.009a.5.5 0 0 1 .512.858l-1.068.659 1.814-1.046a.5.5 0 0 1 .52.854l-12.9 8.239 14.244-8.222a.5.5 0 0 1 .517.855l-13.1 8.307 14.236-8.22a.5.5 0 0 1 .514.857l-8.9 5.528 9.612-5.549a.5.5 0 0 1 .511.858l-5.516 3.395 6.018-3.475a.5.5 0 0 1 .52.854l-18.193 11.634 19.227-11.099a.5.5 0 0 1 .517.855l-15.607 9.825 16.3-9.416a.5.5 0 0 1 .519.855l-18.908 12.045 19.639-11.338a.5.5 0 0 1 .515.856l-14.236 8.882 14.62-8.44a.5.5 0 0 1 .518.855l-17.815 11.269 18.217-10.518a.5.5 0 0 1 .516.857l-16.07 10.094 16.3-9.41a.5.5 0 0 1 .517.856l-16.141 10.154 16.257-9.386a.5.5 0 0 1 .513.858l-10.314 6.383 10.22-5.9a.5.5 0 0 1 .516.857l-14.109 8.847 13.99-8.076a.5.5 0 0 1 .517.855l-15.981 10.138 15.762-9.1a.5.5 0 0 1 .516.855l-13.67 8.63 13.292-7.672a.5.5 0 0 1 .512.859l-1.712 1.047 1.21-.7a.5.5 0 0 1 .513.858l-4.661 2.88 4.086-2.35a.5.5 0 0 1 .52.853l-12.734 8.157 11.966-6.91a.5.5 0 0 1 .524.852l-12.768 8.32 11.693-6.75a.5.5 0 0 1 .522.853l-9.155 5.935 5.631-3.251a.5.5 0 0 1 .523.851l-5.06 3.311.891-.515a.5.5 0 0 1 .544.837l-5.214 3.789.109-.063a.5.5 0 0 1 .574.814l-3.053 2.6a.5.5 0 0 1 -.207.636l-1.707.985a.5.5 0 0 1 -.574-.813l.734-.626-3.631 2.1a.5.5 0 0 1 -.544-.837l5.212-3.787-8.208 4.738a.494.494 0 0 1 -.25.065z" fill="#254d7c"></path><path d="m24.538 43.454a.5.5 0 0 1 -.281-.914l5.453-3.7-7.683 4.434a.5.5 0 0 1 -.518-.854l1.078-.688-2.199 1.268a.5.5 0 0 1 -.523-.853l6.177-4-7.552 4.353a.5.5 0 0 1 -.521-.853l8.271-5.357-9.573 5.526a.5.5 0 0 1 -.515-.857l1.068-.659-1.691.976a.5.5 0 0 1 -.516-.856l6.3-3.977-7.087 4.091a.5.5 0 0 1 -.517-.855l6.95-4.379-7.64 4.411a.5.5 0 0 1 -.522-.852l12.966-8.375-13.915 8.027a.5.5 0 0 1 -.516-.857l6.968-4.36-7.414 4.28a.5.5 0 0 1 -.514-.857l5.428-3.372-5.738 3.312a.5.5 0 0 1 -.521-.853l14.159-9.112-14.75 8.517a.5.5 0 0 1 -.518-.855l12.779-8.147-13.151 7.593a.5.5 0 0 1 -.518-.856l11.33-7.173-11.52 6.651a.5.5 0 0 1 -.514-.858l4.674-2.895-4.624 2.669a.5.5 0 0 1 -.52-.855l12.507-7.983-12.539 7.236a.5.5 0 0 1 -.517-.854l10.614-6.737-10.472 6.045a.5.5 0 0 1 -.517-.855l9.275-5.873-9.008 5.2a.5.5 0 0 1 -.517-.855l8.333-5.279-7.927 4.572a.5.5 0 0 1 -.518-.855l7-4.434-6.476 3.745a.5.5 0 0 1 -.524-.852l10.6-6.927-9.865 5.7a.5.5 0 0 1 -.525-.851l8.715-5.712-7.737 4.463a.5.5 0 0 1 -.52-.854l3.108-1.991-2.042 1.179a.5.5 0 0 1 -.526-.851l4.342-2.86-2.9 1.675a.5.5 0 0 1 -.529-.848l2.784-1.868-.927.541a.5.5 0 0 1 -.556-.828l3.708-2.872a.5.5 0 0 1 -.144-.921l5.276-3.047a.5.5 0 0 1 .556.828l-2.95 2.279 7.373-4.256a.5.5 0 0 1 .529.847l-2.791 1.87 4.82-2.782a.5.5 0 0 1 .525.851l-4.351 2.868 6.045-3.489a.5.5 0 0 1 .519.853l-3.09 1.981 4.283-2.473a.5.5 0 0 1 .524.851l-8.719 5.714 10.235-5.909a.5.5 0 0 1 .523.852l-10.591 6.921 11.976-6.914a.5.5 0 0 1 .518.855l-7.013 4.441 7.844-4.529a.5.5 0 0 1 .517.856l-8.326 5.274 9.089-5.247a.5.5 0 0 1 .517.855l-9.279 5.871 9.967-5.753a.5.5 0 0 1 .518.854l-10.619 6.743 11.245-6.491a.5.5 0 0 1 .519.855l-12.5 7.984 13.108-7.567a.5.5 0 0 1 .513.857l-4.678 2.898 4.871-2.811a.5.5 0 0 1 .517.855l-11.337 7.176 11.649-6.727a.5.5 0 0 1 .518.854l-12.77 8.144 13.039-7.528a.5.5 0 0 1 .52.854l-14.17 9.117 14.357-8.288a.5.5 0 0 1 .513.857l-5.417 3.368 5.284-3.05a.5.5 0 0 1 .515.856l-6.972 4.362 6.783-3.919a.5.5 0 0 1 .521.853l-12.967 8.378 12.746-7.359a.5.5 0 0 1 .516.855l-6.937 4.373 6.521-3.766a.5.5 0 0 1 .517.855l-6.3 3.978 5.775-3.334a.5.5 0 0 1 .515.857l-1.1.682.488-.281a.5.5 0 0 1 .521.853l-8.268 5.356 7.43-4.289a.5.5 0 0 1 .523.853l-6.16 3.994 5.115-2.953a.5.5 0 0 1 .518.854l-1.152.735a.5.5 0 0 1 .481.873l-5.455 3.7.884-.51a.5.5 0 0 1 .535.844l-2.857 1.98a.507.507 0 0 1 .182.183.5.5 0 0 1 -.183.683l-7.457 4.3a.5.5 0 0 1 -.535-.844l.355-.246-2.284 1.319a.494.494 0 0 1 -.25.078z" fill="#2c5a9e"></path><path d="m46.052 59.428a.5.5 0 0 1 -.289-.908l3.044-2.16-5.107 2.95a.5.5 0 0 1 -.536-.843l5.436-3.789-7.23 4.174a.5.5 0 0 1 -.524-.852l2.887-1.892-3.85 2.223a.5.5 0 0 1 -.523-.853l3.148-2.041-3.925 2.263a.5.5 0 0 1 -.526-.85l6.957-4.606-7.879 4.556a.5.5 0 0 1 -.532-.846l10.797-7.381-11.893 6.865a.5.5 0 0 1 -.527-.85l9.239-6.122-9.868 5.7a.5.5 0 0 1 -.529-.848l10.842-7.28-11.394 6.576a.5.5 0 0 1 -.524-.851l7.93-5.17-8.112 4.682a.5.5 0 0 1 -.517-.855l2.619-1.657-2.536 1.464a.5.5 0 0 1 -.52-.854l4.733-3.032-4.6 2.659a.5.5 0 0 1 -.526-.85l8.468-5.607-8.279 4.779a.5.5 0 0 1 -.524-.85l6.387-4.189-5.979 3.447a.5.5 0 0 1 -.523-.85l4.818-3.153-4.242 2.449a.5.5 0 0 1 -.531-.847l6.151-4.152-5.309 3.064a.5.5 0 0 1 -.526-.849l2.385-1.579-1.369.79a.5.5 0 0 1 -.537-.843l3.459-2.41-1.92 1.108a.5.5 0 0 1 -.568-.817l3.291-2.724a.5.5 0 0 1 -.232-.933l4.537-2.62a.5.5 0 0 1 .568.818l-2.942 2.434 6.961-4.016a.5.5 0 0 1 .536.842l-3.469 2.417 5.288-3.052a.5.5 0 0 1 .527.849l-2.374 1.573 3.516-2.029a.5.5 0 0 1 .53.847l-6.152 4.153 7.454-4.3a.5.5 0 0 1 .524.85l-4.829 3.15 5.68-3.278a.5.5 0 0 1 .525.851l-6.383 4.186 7.17-4.14a.5.5 0 0 1 .526.85l-8.465 5.606 9.224-5.326a.5.5 0 0 1 .519.854l-4.727 3.029 5.076-2.932a.5.5 0 0 1 .518.856l-2.628 1.663 2.8-1.619a.5.5 0 0 1 .524.851l-7.918 5.169 8.2-4.737a.5.5 0 0 1 .528.848l-10.841 7.28 11.117-6.419a.5.5 0 0 1 .526.85l-9.233 6.122 9.237-5.333a.5.5 0 0 1 .532.846l-10.8 7.381 10.628-6.135a.5.5 0 0 1 .527.849l-6.949 4.6 6.482-3.742a.5.5 0 0 1 .522.852l-3.154 2.046 2.525-1.457a.5.5 0 0 1 .524.851l-2.887 1.891 2.069-1.194a.5.5 0 0 1 .536.843l-5.442 3.791 4.153-2.4a.5.5 0 0 1 .539.841l-3.042 2.161 1.239-.715a.5.5 0 0 1 .548.835l-2.128 1.575a.493.493 0 0 1 .176.178.5.5 0 0 1 -.183.683l-5.287 3.052a.5.5 0 0 1 -.548-.835l.3-.222-2.867 1.654a.493.493 0 0 1 -.248.068z" fill="#2aa084"></path><path d="m31.672 22.427a.517.517 0 0 1 -.181-.033.505.505 0 0 1 -.3-.315l-.308-.968-1 .577a.5.5 0 0 1 -.706-.639l.25-.554-1.147.662a.5.5 0 0 1 -.683-.681l.718-1.252-2.137 1.236a.5.5 0 0 1 -.644-.741l1.266-1.609-2.52 1.453a.5.5 0 0 1 -.626-.762l1.813-2.067-1.187.685a.5.5 0 0 1 -.594-.8l.384-.367a.52.52 0 0 1 -.42-.173.5.5 0 0 1 -.008-.64l.831-1.026-.193.11a.5.5 0 0 1 -.634-.754l.339-.4a.5.5 0 0 1 -.381-.758l.41-.674a.5.5 0 0 1 -.264-.085.5.5 0 0 1 -.215-.486l.234-1.619a.5.5 0 0 1 .011-.859l.333-.193a.5.5 0 0 1 .745.5l-.186 1.29.455-.262a.5.5 0 0 1 .677.693l-.328.539.288-.166a.5.5 0 0 1 .633.754l-.168.2.078-.045a.5.5 0 0 1 .638.747l-.83 1.026.93-.537a.5.5 0 0 1 .595.8l-.238.226.188-.108a.5.5 0 0 1 .626.763l-1.816 2.07 2.141-1.236a.5.5 0 0 1 .644.741l-1.263 1.61 1.506-.868a.493.493 0 0 1 .6.079.5.5 0 0 1 .08.6l-.717 1.251.883-.509a.5.5 0 0 1 .706.638l-.25.553.191-.109a.493.493 0 0 1 .43-.035.5.5 0 0 1 .3.315l.336 1.052a.5.5 0 0 1 .213.931l-.277.16a.5.5 0 0 1 -.251.069z" fill="#d4e6e7"></path><path d="m16.472 22.415a.5.5 0 0 1 -.3-.9l1.285-.98-.336.193a.5.5 0 0 1 -.659-.144.5.5 0 0 1 .086-.67l2.878-2.439-.551.317a.5.5 0 0 1 -.565-.82l1.3-1.058a.492.492 0 0 1 -.23-.16.5.5 0 0 1 .02-.651l2.279-2.5a.5.5 0 0 1 -.319-.8l1.447-1.889-.013-.02a.5.5 0 0 1 .184-.683l.745-.43a.5.5 0 0 1 .646.737l-.688.9.045-.026a.5.5 0 0 1 .619.77l-2.033 2.238 1.416-.817a.5.5 0 0 1 .565.82l-.5.4a.5.5 0 0 1 .507.846l-2.878 2.441 2.308-1.333a.5.5 0 0 1 .553.83l-1.283.98.735-.423a.5.5 0 0 1 .689.671l-.419.768a.5.5 0 0 1 .233.933l-1.207.7a.5.5 0 0 1 -.688-.672l.349-.641-5.972 3.448a.491.491 0 0 1 -.248.064z" fill="#fff"></path><path d="m23.126 27.436a.5.5 0 0 1 -.473-.663l.431-1.256-1.353.781a.5.5 0 0 1 -.624-.765l.458-.515-.955.55a.5.5 0 0 1 -.61-.777l1.239-1.3-2.027 1.17a.5.5 0 0 1 -.635-.752l1.823-2.209-3.036 1.753a.492.492 0 0 1 -.523-.015.5.5 0 0 1 -.224-.473l.041-.369-.254.146a.5.5 0 0 1 -.5-.865l1.112-.642a.5.5 0 0 1 .747.489l-.041.369 4.594-2.653a.5.5 0 0 1 .635.752l-1.827 2.2 2.6-1.5a.5.5 0 0 1 .612.777l-1.238 1.3.632-.366a.5.5 0 0 1 .624.765l-.494.558a.5.5 0 0 1 .445.1.5.5 0 0 1 .154.548l-.459 1.357a.5.5 0 0 1 .25.932l-.874.5a.5.5 0 0 1 -.25.073z" fill="#d4e6e7"></path><path d="m24.03 27.671a.5.5 0 0 1 -.3-.9l.385-.286a.491.491 0 0 1 -.48-.183.5.5 0 0 1 .033-.655l2.336-2.43-1.726 1a.5.5 0 0 1 -.589-.8l.358-.33a.534.534 0 0 1 -.39-.165.5.5 0 0 1 -.034-.628l.5-.7a.491.491 0 0 1 -.389-.085.5.5 0 0 1 -.2-.506l.181-.88a.482.482 0 0 1 -.123-.142.5.5 0 0 1 .181-.683l.319-.185a.5.5 0 0 1 .741.533l-.1.468.869-.5a.5.5 0 0 1 .656.726l-.465.644 1.441-.832a.5.5 0 0 1 .589.8l-.161.15.891-.515a.5.5 0 0 1 .611.779l-2.337 2.43 4.168-2.405a.5.5 0 0 1 .548.834l-2.876 2.135a.529.529 0 0 1 .068.093.5.5 0 0 1 -.182.683l-4.273 2.464a.5.5 0 0 1 -.25.071z" fill="#c1dadc"></path><path d="m23.415 39.255a.5.5 0 0 1 -.487-.61l.321-1.417-.62.357a.5.5 0 0 1 -.7-.657l.848-1.688-1.189.687a.5.5 0 0 1 -.61-.781l.135-.139-.074.043a.5.5 0 0 1 -.674-.7l.944-1.516-1.215.7a.5.5 0 0 1 -.667-.709l.5-.757-.553.32a.5.5 0 0 1 -.684-.682l.31-.527-.28.161a.5.5 0 0 1 -.711-.626l.191-.456-.116.066a.5.5 0 0 1 -.749-.405l-.054-.971a.5.5 0 0 1 -.5-.867l.7-.405a.5.5 0 0 1 .489-.007.5.5 0 0 1 .26.412l.054.971.7-.4a.5.5 0 0 1 .711.626l-.191.456.605-.348a.5.5 0 0 1 .684.681l-.306.533.788-.455a.5.5 0 0 1 .615.089.5.5 0 0 1 .052.62l-.5.756 1.106-.638a.5.5 0 0 1 .674.7l-.946 1.516 1.448-.835a.5.5 0 0 1 .609.78l-.333.339a.5.5 0 0 1 .427.724l-.849 1.687.163-.094a.5.5 0 0 1 .738.543l-.363 1.6a.5.5 0 0 1 .136.921l-.586.337a.509.509 0 0 1 -.251.065z" fill="#fff"></path><path d="m24.028 39.18a.5.5 0 0 1 -.385-.819l.844-1.021-.215.124a.5.5 0 0 1 -.59-.8l.781-.727-.2.113a.5.5 0 0 1 -.593-.8l3.138-2.96-2.554 1.475a.5.5 0 0 1 -.556-.829l2.4-1.858a.486.486 0 0 1 -.179-.181.5.5 0 0 1 .182-.682l4.406-2.543a.5.5 0 0 1 .555.828l-.963.745a.509.509 0 0 1 .569.173.5.5 0 0 1 -.059.662l-3.138 2.961.3-.176a.5.5 0 0 1 .591.8l-1.507 1.4a.5.5 0 0 1 .164.767l-1.606 1.958a.4.4 0 0 1 .044.064.5.5 0 0 1 -.183.683l-1 .575a.49.49 0 0 1 -.246.068z" fill="#d4e6e7"></path><g fill="#262626"><path d="m40.81 7.307c-11.561-12.02-33.61-7.17-39.061 8.593-7.093 17.431 10.826 36.328 28.626 30.7.617 8.477 9.538 14.342 17.651 12.29 15.832-2.8 14.873-27.129-1.344-28.111a23.55 23.55 0 0 0 -5.872-23.472zm-32.523 32.524c-11.379-10.893-7.052-31.762 7.913-36.942 16.754-6.73 34.808 10.87 29.073 27.831a15.809 15.809 0 0 0 -2.941.315c9.097-24.769-27.718-37.652-36.939-13.407-5.853 15.042 10.424 30.536 25.225 24.641a14.435 14.435 0 0 0 -.3 3.31 22.424 22.424 0 0 1 -22.031-5.748zm25.464-3.916a13.949 13.949 0 0 0 -2.863 5.277c-22.9 8.868-35.888-26.548-12.833-34.76 14.578-5.346 29.135 11.033 22.724 25a15.269 15.269 0 0 0 -7.028 4.483zm24.525 9.279c.395 12.77-16.784 18.471-23.927 7.773-5.4-7.087-1.924-18.661 6.667-21.087a1.13 1.13 0 0 0 1.067-.28 12.531 12.531 0 0 1 3.175-.272.874.874 0 0 0 1.045.088 13.985 13.985 0 0 1 11.973 13.778z"></path><path d="m30.284 27.619c-2.178 1.069-4.135 2.654-6.224 3.915-12.1-8.934-6.9-.678-2.2 6.221.536 1.4 2.117 2.43 3.372 1.148.559-1.89 9.283-11.671 5.052-11.284zm-10.284 4.428c-.6-.964-1.253-1.921-1.831-2.908 1.748.985 3.295 2.339 5.1 3.193v4.94zm8.753-.983-4.029 6.436v-5.3c1.989-1.1 3.673-2.421 5.591-3.588-.582.788-1.015 1.639-1.559 2.452z"></path><path d="m32.678 21.807c-2.047-4.348-4.922-8.52-7.353-12.7-1.177-1.329-2.815.064-3.292 1.346-5.407 11.355-11.826 10.247 1.329 17.247 1.009.638 9.064-4.758 9.316-5.893zm-7.2-9.625c1.81 2.995 3.546 6.016 5.393 8.99-2.051-.686-4.1-1.364-6.147-2.056v-8.2q.376.635.757 1.266zm-6.623 5.868 4.418-7.4v8.65l-6.45 2.152c.62-1.152 1.388-2.252 2.032-3.402zm1.028 6.088c-.967-.683-2.112-1.265-3-2.018l6.389-2.132v6.358zm4.965 2.352-.121.079v-6.4l6.44 2.149c-2.014 1.482-4.236 2.758-6.319 4.172z"></path><path d="m42.046 50.121c-1.022-.772-2.527-3.521-3.73-1.88 1.354.864 2.625 4.066 4.4 2.626l9-12c-2.7-.222-7.228 8.982-9.67 11.254z"></path></g></svg>