<svg xmlns="http://www.w3.org/2000/svg" id="icons" height="512" viewBox="0 0 60 60" width="512"><path d="m21.6 59.47a.5.5 0 0 1 -.263-.926l5.6-3.451-7.459 4.307a.5.5 0 0 1 -.519-.854l18.005-11.446-21.309 12.3a.5.5 0 0 1 -.51-.86l3.1-1.88-4.751 2.74a.5.5 0 0 1 -.511-.859l8.968-5.476-10.972 6.335a.5.5 0 0 1 -.513-.858l17.634-10.89-20.353 11.748a.5.5 0 0 1 -.512-.858l17.946-11.02-19.952 11.522a.5.5 0 0 1 -.509-.86l12.643-7.67-13.528 7.809a.5.5 0 0 1 -.506-.861l.182-.109-.5.285a.5.5 0 0 1 -.511-.86l20.262-12.394-20.719 11.962a.5.5 0 0 1 -.512-.859l23.626-14.562-23.757 13.714a.5.5 0 0 1 -.511-.86l20.626-12.624-20.235 11.683a.5.5 0 0 1 -.512-.859l23.24-14.291-22.728 13.122a.5.5 0 0 1 -.512-.859l23.416-14.408-22.904 13.224a.5.5 0 0 1 -.509-.861l10.829-6.548-10.32 5.959a.5.5 0 0 1 -.512-.858l20.806-12.79-20.294 11.716a.5.5 0 0 1 -.515-.857l23.335-14.564-22.82 13.172a.5.5 0 0 1 -.51-.86l10.306-6.29-9.8 5.656a.5.5 0 0 1 -.517-.856l20.371-12.876-19.85 11.46a.5.5 0 0 1 -.516-.856l15.336-9.635-14.82 8.558a.5.5 0 0 1 -.521-.854l16.5-10.6-15.979 9.223a.5.5 0 0 1 -.512-.858l.661-.407-.149.086a.5.5 0 0 1 -.514-.857l4.185-2.605-3.671 2.12a.5.5 0 0 1 -.524-.852l11.188-7.311-10.664 6.158a.5.5 0 0 1 -.519-.855l4.692-2.991-4.173 2.409a.5.5 0 0 1 -.518-.854l1.617-1.027-1.099.638a.5.5 0 0 1 -.521-.852l2.157-1.39-1.636.942a.5.5 0 0 1 -.534-.844l6.119-4.229-5.585 3.223a.5.5 0 0 1 -.536-.843l3.913-2.733-3.377 1.95a.5.5 0 0 1 -.566-.824l4.686-3.815-4.1 2.365a.5.5 0 0 1 -.546-.836l.574-.421a.6.6 0 0 1 -.413-.205.5.5 0 0 1 .069-.665l1.526-1.379a.5.5 0 0 1 -.081-.9l3.021-1.744a.5.5 0 0 1 .585.8l-.9.817 3.151-1.817a.5.5 0 0 1 .546.836l-.112.082 1.591-.918a.5.5 0 0 1 .565.82l-4.688 3.816 8.034-4.636a.5.5 0 0 1 .536.842l-3.914 2.734 6.2-3.576a.5.5 0 0 1 .534.843l-6.124 4.227 8.786-5.07a.5.5 0 0 1 .521.852l-2.161 1.39 3.889-2.242a.5.5 0 0 1 .518.854l-1.607 1.02 3.248-1.874a.5.5 0 0 1 .519.854l-4.689 2.989 6.658-3.843a.5.5 0 0 1 .523.851l-11.192 7.312 14.142-8.163a.5.5 0 0 1 .515.857l-4.189 2.607 6-3.464a.5.5 0 0 1 .511.858l-.651.4 2.182-1.258a.5.5 0 0 1 .52.853l-16.5 10.605 19.843-11.458a.5.5 0 0 1 .515.856l-15.335 9.631 18.168-10.487a.5.5 0 0 1 .518.855l-20.369 12.875 23.786-13.73a.5.5 0 0 1 .511.859l-10.319 6.3 12.4-7.156a.5.5 0 0 1 .515.856l-23.33 14.556 26.554-15.329a.5.5 0 0 1 .512.858l-20.792 12.782 21.879-12.632a.5.5 0 0 1 .509.861l-10.848 6.558 10.908-6.3a.5.5 0 0 1 .512.859l-23.41 14.4 23-13.279a.5.5 0 0 1 .511.858l-23.235 14.298 22.731-13.126a.5.5 0 0 1 .511.86l-20.633 12.63 20.129-11.622a.5.5 0 0 1 .513.859l-23.63 14.564 24.594-14.2a.5.5 0 0 1 .511.859l-20.251 12.393 20.239-11.685a.5.5 0 0 1 .507.862l-.439.262a.5.5 0 0 1 .447.892l-12.613 7.652 12.1-6.988a.5.5 0 0 1 .511.859l-17.956 11.028 17.449-10.074a.5.5 0 0 1 .512.858l-17.632 10.894 17.12-9.886a.5.5 0 0 1 .51.859l-8.961 5.472 8.451-4.879a.5.5 0 0 1 .509.86l-3.114 1.891 2.6-1.5a.5.5 0 0 1 .518.855l-18 11.445 17.487-10.1a.5.5 0 0 1 .512.858l-5.587 3.443 5.075-2.93a.5.5 0 0 1 .512.859l-3.257 2.005 2.745-1.578a.5.5 0 0 1 .518.855l-10.2 6.481 9.684-5.59a.5.5 0 0 1 .516.855l-5.474 3.446 4.958-2.862a.5.5 0 0 1 .52.853l-7.49 4.825 6.97-4.024a.5.5 0 0 1 .531.846l-9.837 6.694 9.306-5.372a.5.5 0 0 1 .539.841l-8.321 5.887 7.78-4.49a.5.5 0 0 1 .533.844l-3.874 2.661 3.341-1.928a.5.5 0 0 1 .551.831l-4.6 3.488 4.049-2.341a.5.5 0 0 1 .572.815l-3.21 2.711 2.638-1.523a.5.5 0 0 1 .585.8l-1.279 1.151.68-.391a.5.5 0 0 1 .612.777l-.726.762a.491.491 0 0 1 .227.206.5.5 0 0 1 -.182.682l-2.048 1.19a.5.5 0 0 1 -.612-.777l.218-.23-1.783 1.027a.5.5 0 0 1 -.585-.8l1.273-1.152-3.381 1.952a.5.5 0 0 1 -.573-.814l3.21-2.711-6.106 3.525a.5.5 0 0 1 -.552-.831l4.6-3.489-7.481 4.32a.5.5 0 0 1 -.533-.844l3.877-2.656-6.076 3.5a.5.5 0 0 1 -.539-.84l8.318-5.89-11.658 6.73a.5.5 0 0 1 -.531-.845l9.836-6.694-13.06 7.539a.5.5 0 0 1 -.52-.852l7.489-4.824-9.834 5.676a.5.5 0 0 1 -.516-.855l5.478-3.445-7.456 4.3a.5.5 0 0 1 -.518-.854l10.192-6.475-12.695 7.329a.5.5 0 0 1 -.512-.858l3.261-2.009-4.966 2.867a.5.5 0 0 1 -.254.07z" fill="#8f5c4a"></path><path d="m15.689 23.47a.5.5 0 0 1 -.32-.885l.231-.185-1.747 1a.5.5 0 0 1 -.624-.765l1.445-1.619-4.132 2.384a.5.5 0 0 1 -.587-.8l.906-.828-2.8 1.615a.5.5 0 0 1 -.65-.733l1.477-1.974-2.481 1.435a.5.5 0 0 1 -.663-.715l.627-.915a.5.5 0 0 1 -.487-.247.5.5 0 0 1 .183-.682l1.656-.956a.5.5 0 0 1 .663.714l-.572.834 2.686-1.548a.5.5 0 0 1 .65.732l-1.476 1.973 4.689-2.705a.5.5 0 0 1 .587.8l-.908.829 2.824-1.63a.5.5 0 0 1 .623.765l-1.444 1.619 4.132-2.383a.5.5 0 0 1 .57.817l-.229.189 1.745-1.006a.5.5 0 0 1 .6.794l-1.126 1.079 3.242-1.873a.5.5 0 0 1 .587.8l-.941.865 2.885-1.665a.5.5 0 0 1 .631.756l-1.477 1.735 4.316-2.491a.5.5 0 0 1 .628.759l-1.466 1.692 4.247-2.451a.5.5 0 0 1 .582.806l-.746.661 2.543-1.467a.5.5 0 0 1 .619.769l-1.42 1.556 4.028-2.325a.5.5 0 0 1 .613.776l-1.373 1.453 3.865-2.229a.5.5 0 0 1 .608.781l-1.323 1.359 3.715-2.14a.5.5 0 0 1 .654.726l-1.481 2.034 4.784-2.76a.5.5 0 0 1 .643.741l-1.495 1.9 3.957-2.284a.5.5 0 0 1 .611.779l-.994 1.032 1.448-.835a.5.5 0 0 1 .738.542l-.336 1.492.1-.06a.5.5 0 1 1 .5.865l-1.091.63a.492.492 0 0 1 -.546-.03.5.5 0 0 1 -.193-.512l.336-1.492-3.522 2.032a.5.5 0 0 1 -.61-.779l.993-1.031-3.137 1.81a.5.5 0 0 1 -.644-.741l1.5-1.9-4.585 2.641a.5.5 0 0 1 -.622-.1.5.5 0 0 1 -.032-.628l1.481-2.034-4.784 2.762a.5.5 0 0 1 -.608-.781l1.322-1.361-3.713 2.142a.5.5 0 0 1 -.613-.776l1.373-1.453-3.863 2.229a.5.5 0 0 1 -.619-.769l1.42-1.556-4.029 2.325a.5.5 0 0 1 -.582-.806l.745-.66-2.542 1.466a.5.5 0 0 1 -.627-.759l1.463-1.69-4.244 2.449a.5.5 0 0 1 -.631-.756l1.475-1.733-4.314 2.489a.5.5 0 0 1 -.588-.8l.942-.865-2.886 1.665a.5.5 0 0 1 -.6-.794l1.126-1.079-3.241 1.873a.5.5 0 0 1 -.25.07z" fill="#684337"></path><path d="m50.6 46.47a.5.5 0 0 1 -.3-.9l2.082-1.582-4.188 2.412a.5.5 0 0 1 -.55-.832l4.409-3.315-6.6 3.808a.5.5 0 0 1 -.53-.846l1.746-1.184-2.389 1.379a.5.5 0 0 1 -.669-.159.5.5 0 0 1 .123-.677l4.817-3.53-5.438 3.139a.5.5 0 0 1 -.532-.846l.363-.248-.309.179a.5.5 0 0 1 -.555-.83l2.86-2.2-2.64 1.529a.5.5 0 0 1 -.577-.811l2.146-1.856-1.333.769a.5.5 0 0 1 -.583-.806l1.076-.959a.491.491 0 0 1 -.157-.166.5.5 0 0 1 .183-.683l2.681-1.548a.5.5 0 0 1 .583.806l-.056.05 1.673-.965a.5.5 0 0 1 .577.81l-2.151 1.859 4.625-2.667a.5.5 0 0 1 .555.829l-2.857 2.2 5.244-3.029a.5.5 0 0 1 .532.845l-.358.245 1.888-1.09a.5.5 0 0 1 .546.836l-4.811 3.524 6.463-3.731a.5.5 0 0 1 .531.846l-1.752 1.188 1.727-1a.5.5 0 0 1 .551.832l-4.411 3.316 3.885-2.242a.5.5 0 0 1 .552.831l-2.084 1.584 1.532-.884a.5.5 0 0 1 .562.822l-.919.738.357-.2a.5.5 0 0 1 .618.77l-.992 1.083.363-.21a.5.5 0 1 1 .5.865l-3.181 1.832a.5.5 0 0 1 -.618-.77l.99-1.08-3.208 1.85a.5.5 0 0 1 -.562-.822l.919-.738-2.7 1.56a.493.493 0 0 1 -.249.07z" fill="#684337"></path><path d="m39.862 23.491a.5.5 0 0 1 -.3-.9l4.22-3.1-6.5 3.75a.5.5 0 0 1 -.526-.848l1.613-1.074-1.019.588a.5.5 0 0 1 -.538-.841l4.574-3.232-3.936 2.275a.5.5 0 0 1 -.54-.839l3.457-2.457-2.832 1.634a.5.5 0 0 1 -.562-.823l5.045-4.036-4.364 2.518a.5.5 0 0 1 -.538-.841l.421-.3a.515.515 0 0 1 -.485-.214.5.5 0 0 1 .1-.673l2.387-1.89-1.738 1a.5.5 0 0 1 -.558-.826l.974-.762-.345.2a.5.5 0 0 1 -.563-.823l.534-.429a.5.5 0 0 1 -.524-.815l1.652-1.793-.93.537a.5.5 0 0 1 -.679-.69l1.023-1.687-.225.129a.5.5 0 0 1 -.743-.512l.252-1.557a.5.5 0 0 1 .092-.8l.246-.142a.5.5 0 0 1 .744.512l-.179 1.1.99-.571a.5.5 0 0 1 .679.69l-1.02 1.701 2.091-1.207a.5.5 0 0 1 .619.772l-1.653 1.793 2.61-1.508a.5.5 0 0 1 .563.822l-.474.382.916-.528a.5.5 0 0 1 .557.824l-.974.763 1.5-.864a.5.5 0 0 1 .56.825l-2.387 1.889 3.151-1.813a.5.5 0 0 1 .538.842l-.1.071.5-.286a.5.5 0 0 1 .563.823l-5.048 4.03 6.3-3.635a.5.5 0 0 1 .54.839l-3.46 2.46 4.211-2.431a.5.5 0 0 1 .538.841l-4.573 3.232 5.306-3.064a.5.5 0 0 1 .527.849l-1.62 1.077.654-.377a.5.5 0 0 1 .546.836l-4.222 3.093 1.688-.974a.5.5 0 0 1 .589.8l-2.747 2.554a.5.5 0 0 1 .377.916l-3.662 2.115a.5.5 0 0 1 -.59-.8l2.693-2.5-5.736 3.311a.491.491 0 0 1 -.25.069z" fill="#578e33"></path><path d="m39.328 23.486a.5.5 0 0 1 -.358-.848l2.592-2.668-3.282 1.894a.5.5 0 0 1 -.584-.8l2.745-2.466-2.161 1.243a.5.5 0 0 1 -.575-.813l1.228-1.052-.653.377a.5.5 0 0 1 -.609-.781l1.839-1.9-1.23.71a.5.5 0 0 1 -.6-.79l1.092-1.071-.492.284a.5.5 0 0 1 -.619-.77l1.247-1.365-.628.362a.5.5 0 0 1 -.659-.72l.742-1.056-.083.048a.5.5 0 0 1 -.748-.481l.177-1.835a.493.493 0 0 1 -.109-.128.5.5 0 0 1 .181-.683l.231-.134a.5.5 0 0 1 .52.012.5.5 0 0 1 .229.468l-.138 1.434 1.2-.694a.5.5 0 0 1 .659.719l-.742 1.057 1.467-.847a.5.5 0 0 1 .619.77l-1.246 1.365 1.108-.639a.5.5 0 0 1 .6.79l-1.088 1.068.918-.529a.5.5 0 0 1 .61.78l-1.839 1.9 2.217-1.28a.5.5 0 0 1 .575.813l-1.234 1.05 1.636-.943a.5.5 0 0 1 .584.8l-2.744 2.464 2.256-1.3a.5.5 0 0 1 .608.781l-2.828 2.918a.5.5 0 0 1 .2.931l-2.585 1.492a.489.489 0 0 1 -.246.063z" fill="#89d461"></path><path d="m12.613 23.5a.5.5 0 0 1 -.267-.923l3.724-2.348-3.79 2.187a.5.5 0 0 1 -.527-.849l12.853-8.553-12.326 7.115a.5.5 0 0 1 -.517-.856l5.055-3.2-4.538 2.627a.5.5 0 0 1 -.515-.856l1.91-1.194-1.4.8a.5.5 0 0 1 -.519-.854l6.176-3.944-5.652 3.265a.5.5 0 0 1 -.521-.853l5.357-3.456-4.836 2.792a.5.5 0 0 1 -.535-.843l8.634-5.974-8.1 4.676a.5.5 0 0 1 -.532-.846l4.8-3.275-4.267 2.462a.5.5 0 0 1 -.529-.848l1.276-.852-.747.431a.5.5 0 0 1 -.536-.843l1.675-1.168-1.139.658a.5.5 0 0 1 -.58-.808l3.629-3.2-3.049 1.763a.5.5 0 0 1 -.627-.761l1.747-2.005-1.124.648a.5.5 0 0 1 -.685-.678l.418-.741a.5.5 0 0 1 -.18-.927l1.171-.669a.5.5 0 0 1 .6.077.5.5 0 0 1 .084.6l-.316.558 2.141-1.235a.5.5 0 0 1 .626.761l-1.75 2.005 4.793-2.766a.5.5 0 0 1 .58.807l-3.629 3.193 6.936-4a.5.5 0 0 1 .536.842l-1.674 1.165 3.482-2.007a.5.5 0 0 1 .529.847l-1.268.853 2.942-1.7a.5.5 0 0 1 .532.845l-4.8 3.276 7.135-4.121a.5.5 0 0 1 .535.843l-8.631 5.969 11.805-6.812a.5.5 0 0 1 .522.852l-5.372 3.462 7.468-4.314a.5.5 0 0 1 .519.854l-6.169 3.946 6.564-3.793a.5.5 0 0 1 .514.857l-1.912 1.2 1.4-.807a.5.5 0 0 1 .517.855l-5.057 3.2 4.542-2.622a.5.5 0 0 1 .527.849l-12.851 8.549 12.328-7.119a.5.5 0 0 1 .516.856l-3.721 2.346 3.206-1.85a.5.5 0 0 1 .526.85l-8.331 5.5 7.807-4.507a.5.5 0 0 1 .524.851l-4.155 2.715 3.635-2.1a.5.5 0 0 1 .535.844l-6.317 4.372 5.785-3.34a.5.5 0 0 1 .546.836l-5.546 4.076 5-2.888a.5.5 0 0 1 .533.845l-.433.3a.5.5 0 0 1 .477.857l-3.16 2.7 2.588-1.494a.5.5 0 0 1 .62.768l-1.663 1.842 1.051-.606a.5.5 0 0 1 .73.573l-.351 1.2a.5.5 0 0 1 .123.916l-.653.369a.5.5 0 0 1 -.73-.573l.292-1-2.729 1.576a.5.5 0 0 1 -.621-.768l1.672-1.835-4.528 2.614a.5.5 0 0 1 -.575-.812l3.162-2.7-6.1 3.519a.5.5 0 0 1 -.533-.845l.31-.213-1.838 1.061a.5.5 0 0 1 -.546-.836l5.544-4.074-8.511 4.914a.5.5 0 0 1 -.535-.844l6.32-4.374-9.045 5.222a.5.5 0 0 1 -.523-.852l4.153-2.707-6.17 3.562a.5.5 0 0 1 -.526-.85l8.339-5.511-11.02 6.358a.488.488 0 0 1 -.249.068z" fill="#63a63d"></path><path d="m21.516 6.127a.5.5 0 0 1 -.251-.933l1.035-.594a.5.5 0 1 1 .5.865l-1.034.6a.5.5 0 0 1 -.25.062z" fill="#89d461"></path><path d="m16.919 23.5a.5.5 0 0 1 -.283-.912l6.5-4.464-6.856 3.958a.5.5 0 0 1 -.528-.849l5.222-3.488-4.694 2.71a.5.5 0 0 1 -.521-.852l.774-.5-.253.145a.5.5 0 0 1 -.53-.847l4.966-3.365-4.436 2.564a.5.5 0 0 1 -.548-.834l6.84-5.07-6.292 3.631a.5.5 0 0 1 -.529-.848l.665-.446-.136.078a.5.5 0 0 1 -.545-.836l4.3-3.142-3.755 2.167a.5.5 0 0 1 -.577-.811l3.931-3.4-3.354 1.934a.5.5 0 0 1 -.691-.668l.317-.592a.5.5 0 0 1 -.3-.232.5.5 0 0 1 .183-.682l1-.576a.5.5 0 0 1 .691.668l-.183.341 6.382-3.682a.5.5 0 0 1 .577.81l-3.931 3.4 7.285-4.204a.5.5 0 0 1 .545.836l-4.3 3.143 4.866-2.81a.5.5 0 0 1 .529.848l-.663.445 1.066-.615a.5.5 0 0 1 .548.834l-6.842 5.07 8.888-5.13a.5.5 0 0 1 .53.846l-4.967 3.365 5.91-3.412a.5.5 0 0 1 .52.853l-.77.5.253-.146a.5.5 0 0 1 .527.849l-5.219 3.486 4.7-2.71a.5.5 0 0 1 .533.845l-6.5 4.462 5.969-3.446a.5.5 0 0 1 .548.834l-6.269 4.647 5.722-3.3a.5.5 0 0 1 .537.841l-1.6 1.123 1.068-.616a.5.5 0 0 1 .581.808l-3.4 3 2.821-1.629a.5.5 0 0 1 .639.747l-1.644 2.028 1.01-.583a.5.5 0 0 1 .734.558l-.273 1.06a.5.5 0 0 1 .042.887l-.5.289a.5.5 0 0 1 -.734-.557l.2-.776-2.315 1.328a.5.5 0 0 1 -.638-.747l1.638-2.027-4.816 2.781a.5.5 0 0 1 -.581-.808l3.4-3-6.6 3.813a.5.5 0 0 1 -.537-.842l1.6-1.124-3.413 1.97a.5.5 0 0 1 -.548-.834l6.262-4.644-9.5 5.485a.494.494 0 0 1 -.248.069z" fill="#89d461"></path><path d="m24.632 13.433a.5.5 0 0 1 -.421-.771l.86-1.338-1.608.928a.5.5 0 0 1 -.672-.7l.688-1.092a.5.5 0 0 1 -.413-.905l1.656-.955a.5.5 0 0 1 .673.7l-.678 1.075 1.638-.945a.5.5 0 0 1 .671.7l-.859 1.337.443-.256a.5.5 0 1 1 .5.865l-2.228 1.287a.49.49 0 0 1 -.25.07z" fill="#63a63d"></path><path d="m20.388 23.5a.5.5 0 0 1 -.326-.88l2.4-2.051-2.139 1.231a.5.5 0 0 1 -.616-.773l1.713-1.85a.5.5 0 0 1 -.365-.919l2.683-1.55a.5.5 0 0 1 .617.773l-1.667 1.8 3.971-2.292a.5.5 0 0 1 .575.813l-2.4 2.051 3.3-1.908a.5.5 0 0 1 .574.814l-1.248 1.063 1.506-.869a.5.5 0 0 1 .575.813l-.107.091a.5.5 0 0 1 .7.624l-.52 1.356.093-.054a.5.5 0 1 1 .5.866l-1.315.76a.5.5 0 0 1 -.718-.611l.521-1.357-3.427 1.977a.5.5 0 0 1 -.568-.818l.1-.088-1.569.906a.5.5 0 0 1 -.575-.814l1.25-1.065-3.267 1.886a.488.488 0 0 1 -.251.075z" fill="#63a63d"></path><g fill="#262626"><path d="m59.727 38.016a2.317 2.317 0 0 0 -1.991-2.353c-.581-3.751 1.662-10.667-2-12.841-.049-3.079.908-8.3-3.578-8.36a1.441 1.441 0 0 0 -.383-2.462l-12.975-8.727c.3-2.75-1.494-2.927-3.741-2.714h-18.221c-1.3 0-3.625-.412-4.8.346-1.318.848-.761 3.636-.761 4.939v8.641c-11.486-1.185-11.477 5.734-11.008 14.875 0 7.894-.175 15.81 0 23.7a6.505 6.505 0 0 0 5.469 6.354c14.079.241 28.2 0 42.288.084 12.316 1.417 9.414-3.9 9.707-13.216 3.358-1.119 1.591-5.59 1.994-8.266zm-10.576-15.548h-2.417l2.1-3.119c2.329-.2 5.676-.066 5.433 3.105a39.956 39.956 0 0 0 -5.116.014zm4.732-5.733a4.537 4.537 0 0 1 .381 2.475c-1.45-.941-3.328-.463-4.963-.559l2.073-3.084a2.688 2.688 0 0 1 2.509 1.168zm-6.521-6.288c1.161 1.083 5.008 2.044 3.46 4.076a.635.635 0 0 0 -.384.558c-1.661 2.469-3.308 4.919-4.967 7.387h-3.487c.691-1.7 4.694-5.164 3.395-6.733-1.36-1.1-2.793-2.512-2.7-4.4-.379-1.709-2.749-2.194-3.952-3.335 0-1.09.049-2.2.073-3.314zm-8.635-.947c.755.679 2.068 1.01 2.5 1.932a5.517 5.517 0 0 0 2.273 4.454c.4.285 1.163.708.67 1.251-1.079 1.836-2.446 3.526-3.585 5.331h-1.858zm-25.727-8.059c7.474-.051 15.07.035 22.587 0 .6 0 1.4-.2 1.666.541.091 6.784-.015 13.668.024 20.486h-2.553c-.519-2.338 1.3-15.615-1.183-15.071a6.2 6.2 0 0 1 -3.832-1.419c-.536-.507-.678-1.217-1.509-1.269-.814-.051-1.647 0-2.462 0-5.494-.612-3.553.992-7.2 2.508-.968.239-3.1-.046-3.257 1.363-.073 4.615.046 9.262 0 13.888h-2.554q0-10.272 0-20.546c.018-.815-.103-.366.273-.481zm7.781 21.027c-.52-6.649 8.714-6.407 8.466 0zm6.444-5.585c-3.662-1.47-8.3 1.529-7.913 5.585h-2.588c-.049-4.753.1-9.765-.054-14.386-.237-.3.445-.076.639-.18 1.818-.267 4.079-.887 5.042-2.611 1.638.016 3.3-.023 4.925 0 .9.89 1.7 2.008 3.081 2.29.865.5 2.694-.084 2.919 1.084.094 4.584-.06 9.206 0 13.8h-2.6a5.392 5.392 0 0 0 -3.455-5.582zm-5.345-11.592c.141.008.286 0 .427 0-.182.079-.813-.023-.427 0zm-10.607 17.177c-1.5-.149-4.1.748-4.522-1.339-.07-2.389 3.033-1.387 4.522-1.6zm44.987 33.759c-.371 3.238-4.095 2.049-6.318 2.273h-26.995c-5.419-.664-15.691 1.7-19.634-1.683-3.289-3.98-.9-17.147-1.582-22.988.7-8.453-3.669-20.21 9.542-18.329v2.945c-1.838-.09-4.235-.338-5.414 1.078-1.589 1.909.19 3.977 2.272 4.009 12.682.021 25.365-.015 38.047 0 13.054-.674 9.693.889 10.086 12.027-4.524.466-10.34-1.555-13.8 2.225a5.323 5.323 0 0 0 -.037 6.636c3.491 3.635 9.336 1.458 13.84 2.021-.074 3.259.152 6.538-.007 9.786zm1.083-10.708c-4.8-.554-13.992 2.531-14.616-4.6.41-6.93 9.1-3.793 13.688-4.534a.811.811 0 0 0 .742.137c1.788.766.915 3.125 1.116 4.644 0 1.055.45 3.959-.93 4.353z"></path><path d=""></path><path d="m26.958 9.2c-2.238-1.886-6.471 1.291-3.895 3.618 2.212 1.866 6.437-1.3 3.895-3.618zm-2.426.161-.014.006zm0 0c.03-.015.045-.023 0 0zm.561 3.269c-.051-.009-.02-.005 0 0zm.637-.176a1.2 1.2 0 0 1 -.279.191h.005a.675.675 0 0 1 -.115.014h-.031c-1.764-.073-1.989-2.719-.838-3.265 1.547-.264 2.411 2.067 1.262 3.057z"></path><path d="m25.46 12.639.029-.016c.067-.038-.004.002-.029.016z"></path><path d="m49.058 40.446c-.83.091-1.8-.222-2.544.2-.514.356-.129.978.428.906.83-.091 1.8.222 2.544-.2.514-.352.13-.978-.428-.906z"></path></g></svg>